name ./resultDataOpenSim/trcMotMarkerGrf/sub06/grf-02-03.mot
datacolumns 19
datarows 12
range 1.03200000 1.07600000
endheader

                time	     ground_force_vx	     ground_force_vy	     ground_force_vz	     ground_force_px	     ground_force_py	     ground_force_pz	   l_ground_force_vx	   l_ground_force_vy	   l_ground_force_vz	   l_ground_force_px	   l_ground_force_py	   l_ground_force_pz	     ground_torque_x	     ground_torque_y	     ground_torque_z	   l_ground_torque_x	   l_ground_torque_y	   l_ground_torque_z	
          1.03200000	          0.00000000	          0.00000000	          0.00000000	          0.00000000	          0.00000000	          0.00000000	        134.18428778	        768.38102316	         34.44750218	          0.02967486	         -0.02500000	         -0.03189471	          0.00000000	          0.00000000	          0.00000000	          0.00000000	         -3.14403005	          0.00000000	
          1.03600000	          0.00000000	          0.00000000	          0.00000000	          0.00000000	          0.00000000	          0.00000000	        141.63028285	        780.17808401	         34.13595678	          0.03066336	         -0.02500000	         -0.03134580	          0.00000000	          0.00000000	          0.00000000	          0.00000000	         -3.24131195	          0.00000000	
          1.04000000	          0.00000000	          0.00000000	          0.00000000	          0.00000000	          0.00000000	          0.00000000	        149.13389282	        789.51211856	         33.65176704	          0.03169302	         -0.02500000	         -0.03077889	          0.00000000	          0.00000000	          0.00000000	          0.00000000	         -3.32924914	          0.00000000	
          1.04400000	          0.00000000	          0.00000000	          0.00000000	          0.00000000	          0.00000000	          0.00000000	        156.56460892	        796.33070895	         33.03672519	          0.03269987	         -0.02500000	         -0.03022018	          0.00000000	          0.00000000	          0.00000000	          0.00000000	         -3.40531462	          0.00000000	
          1.04800000	          0.00000000	          0.00000000	          0.00000000	          0.00000000	          0.00000000	          0.00000000	        163.77689170	        800.58261229	         32.32955717	          0.03364668	         -0.02500000	         -0.02968972	          0.00000000	          0.00000000	          0.00000000	          0.00000000	         -3.46646466	          0.00000000	
          1.05200000	          0.00000000	          0.00000000	          0.00000000	          0.00000000	          0.00000000	          0.00000000	        170.66259660	        802.21658582	         31.56943133	          0.03452993	         -0.02500000	         -0.02919737	          0.00000000	          0.00000000	          0.00000000	          0.00000000	         -3.50918109	          0.00000000	
          1.05600000	          0.00000000	          0.00000000	          0.00000000	          0.00000000	          0.00000000	          0.00000000	        177.18201389	        801.18987743	         30.78599453	          0.03535595	         -0.02500000	         -0.02874803	          0.00000000	          0.00000000	          0.00000000	          0.00000000	         -3.52989632	          0.00000000	
          1.06000000	          0.00000000	          0.00000000	          0.00000000	          0.00000000	          0.00000000	          0.00000000	        183.34286643	        797.49052394	         29.98942333	          0.03611845	         -0.02500000	         -0.02834484	          0.00000000	          0.00000000	          0.00000000	          0.00000000	         -3.52569959	          0.00000000	
          1.06400000	          0.00000000	          0.00000000	          0.00000000	          0.00000000	          0.00000000	          0.00000000	        189.15570925	        791.14221060	         29.17559739	          0.03680500	         -0.02500000	         -0.02798567	          0.00000000	          0.00000000	          0.00000000	          0.00000000	         -3.49508080	          0.00000000	
          1.06800000	          0.00000000	          0.00000000	          0.00000000	          0.00000000	          0.00000000	          0.00000000	        194.60018032	        782.16327363	         28.33409363	          0.03741641	         -0.02500000	         -0.02766347	          0.00000000	          0.00000000	          0.00000000	          0.00000000	         -3.43844016	          0.00000000	
          1.07200000	          0.00000000	          0.00000000	          0.00000000	          0.00000000	          0.00000000	          0.00000000	        199.60771538	        770.50711679	         27.44702045	          0.03796824	         -0.02500000	         -0.02737156	          0.00000000	          0.00000000	          0.00000000	          0.00000000	         -3.35816397	          0.00000000	
          1.07600000	          0.00000000	          0.00000000	          0.00000000	          0.00000000	          0.00000000	          0.00000000	        204.06148875	        756.02613352	         26.48708728	          0.03848965	         -0.02500000	         -0.02709952	          0.00000000	          0.00000000	          0.00000000	          0.00000000	         -3.25817412	          0.00000000	
